<svg width="467" height="18" viewBox="0 0 467 18" fill="none" xmlns="http://www.w3.org/2000/svg">
<path d="M15.3107 10.6888C429.747 10.0684 531.732 2.00217 428.748 6.3455C331.927 10.4289 -2.18071 -5.50538 5.11773 4.17384M5.11773 4.17384C5.58234 4.79001 7.43047 5.50997 10.8114 6.3455C67.3028 20.3062 461.743 -1.97179 449.745 2.00218C440.146 5.18135 149.327 4.77461 5.11773 4.17384Z" stroke="#FFC325" stroke-width="1.4"/>
<path d="M451.768 7.14042C37.3409 4.19758 -64.7091 11.3866 38.3087 7.9289C135.161 4.67812 469.119 23.4844 461.904 13.7428M461.904 13.7428C461.445 13.1227 459.603 12.3868 456.229 11.5223C399.86 -2.92362 5.24324 15.9622 17.2751 12.0915C26.9006 8.995 317.705 11.9022 461.904 13.7428Z" stroke="#62BF90" stroke-width="1.4"/>
</svg>
