<svg width="17" height="13" viewBox="0 0 17 13" fill="none" xmlns="http://www.w3.org/2000/svg">
<path d="M15.5058 0H1.49413C1.26413 0 1.04881 0.0567665 0.854004 0.150333L8.46678 7.79293L10.1731 6.14671C10.1731 6.14671 10.1732 6.14654 10.1732 6.14647C10.1733 6.14641 10.1734 6.14634 10.1734 6.14634L16.1462 0.150466C15.9514 0.0568331 15.7359 0 15.5058 0Z" fill="white"/>
<path d="M16.8502 0.857666L11.2295 6.50011L16.85 12.1426C16.9432 11.9471 16.9998 11.7309 16.9998 11.5V1.50006C16.9998 1.2693 16.9434 1.05317 16.8502 0.857666Z" fill="white"/>
<path d="M0.149746 0.857422C0.0565449 1.05299 0 1.26915 0 1.50005V11.5C0 11.7308 0.0564785 11.947 0.149613 12.1425L5.77034 6.50003L0.149746 0.857422Z" fill="white"/>
<path d="M10.5257 7.2071L8.81917 8.85352C8.72188 8.95119 8.59445 9.00002 8.46705 9.00002C8.33965 9.00002 8.21218 8.95119 8.11493 8.85352L6.47483 7.20703L0.854004 12.8495C1.04884 12.9431 1.26429 13 1.49436 13H15.5061C15.7361 13 15.9514 12.9432 16.1462 12.8496L10.5257 7.2071Z" fill="white"/>
</svg>
